<svg xmlns="http://www.w3.org/2000/svg" id="SvgjsSvg21308" width="4096" height="2373.0699139805615" version="1.1" xmlns:xlink="http://www.w3.org/1999/xlink" xmlns:svgjs="http://svgjs.com/svgjs"><defs id="SvgjsDefs21309"></defs><g id="SvgjsG21310" transform="translate(328, 328) scale(34.4)" opacity="1"><defs id="SvgjsDefs6632"></defs><g id="SvgjsG6633" transform="scale(0.21645021645021645)" opacity="1"><g id="SvgjsG6634" class="cVEccdMEZ" transform="translate(143.69614463903238, -11.178828877195036) scale(0.17462517323925916)" light-content="false" non-strokable="false" fill="#d0021b"><path d="M371 409c-30.6 0-55.5 24.6-56 55.1-14.4 7.7-28.5 15-42.8 22-12.3 6.1-15.5 13.7-15.8 26.5-1.5 62.1-3.9 124.2-6 186.3-.4 12.7-.8 25.4-1.4 42.7-13.2-7.5-21.8-13.5-31.2-17.6-25.8-11.2-34.5-29.1-31.8-57.7 4.2-43.6 3.7-87.6 5.3-135.5-13.7 6.9-23.3 13-33.7 16.7-20.9 7.4-27 21.3-26.6 43 .6 38.4-.9 76.9-3.8 115.1-1.6 21.2 3 34.8 23.2 45.1 25.3 13 48.7 29.8 73 44.8 25.3 15.7 50.7 31.3 79.7 49.2.5-13.7.8-22.5 1-31.2 2.7-79.2 7.1-158.5 7.1-237.7 0-29.9 6.4-50.5 31.3-62.7 8.4 5 18.2 7.9 28.6 7.9 30.9 0 56-25.1 56-56s-25.2-56-56.1-56zm0 87h-.4c-16.9-.2-30.5-14-30.5-31 0-6.3 1.9-12.1 5.1-17 5.5-8.4 15.1-14 25.9-14h.1c2.9 0 5.6.4 8.3 1.1 13 3.7 22.6 15.7 22.6 29.9-.1 17.1-14 31-31.1 31z"></path><path d="M462 307c-11 0-21.2 3.2-29.9 8.7-10.7-6.9-21.1-13.8-31.5-20.8-11.3-7.7-19.6-6.8-30.9-.8-54.8 29.2-110.1 57.5-165.3 86.1-11.3 5.9-22.5 11.7-37.9 19.7.1-15.2 1.1-25.6.1-35.8-2.9-27.9 8.4-44.4 34.7-56 40-17.7 78.1-39.7 120.7-61.8-12.7-8.6-22.7-13.9-31.1-21.2-16.7-14.6-31.8-13.1-50.5-2.1-33.1 19.4-67.4 36.9-102.2 53.1-19.2 9-28.9 19.7-28 42.3 1.1 28.5-2.1 57-3.3 85.6-1.3 29.8-2.4 59.6-3.8 93.6 12.1-6.3 19.9-10.3 27.7-14.4 70.3-36.5 141.6-71.5 210.6-110.4 24-13.5 43.7-18.4 64.5-6.9 1.4 29.6 26 53.3 55.9 53.3 30.9 0 56-25.1 56-56S492.9 307 462 307zm30.9 58.8c-1.4 15.8-14.7 28.2-30.9 28.2-8.3 0-15.9-3.3-21.5-8.7-5.9-5.6-9.5-13.6-9.5-22.3 0-15.8 11.8-28.8 27.1-30.8 1.3-.2 2.6-.3 3.9-.3 13.7 0 25.4 9 29.5 21.4 1 3 1.5 6.3 1.5 9.6 0 1 0 2-.1 2.9zM677 824.7c-67.8-41.2-134.6-83.9-203.7-122.7-25.9-14.6-40.7-30.1-39.3-57.4 18.8-9 31.8-28.3 31.8-50.5 0-30.9-25.1-56-56-56s-56 25.1-56 56c0 19.1 9.6 35.9 24.2 46-.4 17.7-.9 34.8-1.8 51.8-.7 13.7 4.3 20.3 15.3 26.8 53.4 31.7 106.3 64.3 159.4 96.5 10.8 6.6 21.7 13.2 36.5 22.2-13 7.8-22.5 12.3-30.6 18.5-22.4 17-42.3 15.8-65.9-.6-35.9-25-74.5-46.1-115.5-71-.7 15.3-.1 26.7-2 37.6-3.8 21.8 5.3 33.9 24.4 44.3 33.7 18.3 66.5 38.5 98.5 59.8 17.7 11.8 31.8 14.4 50.7 1.9 23.8-15.7 49.9-27.8 74.9-41.6 26.1-14.4 52.2-28.8 82-45.3-11.9-7.2-19.4-11.8-26.9-16.3zM409.8 625.1c-16.7 0-30.4-13.3-31-29.9v-1.1c0-.7 0-1.3.1-2v-.2c.5-6.6 3-12.6 6.9-17.4 5.7-7 14.3-11.4 24-11.4 17.1 0 31 13.9 31 31 0 7.4-2.6 14.3-7 19.6-5.8 7-14.4 11.4-24 11.4z"></path><path d="M896.8 489.8c-11.9 6.7-19.6 11-27.2 15.3-69.1 38.9-139.1 76.2-206.8 117.4-24.6 15-44.9 20.4-67.3 7.4.2-1.9.3-3.8.3-5.8 0-30.9-25.1-56-56-56s-56 25.1-56 56 25.1 56 56 56c8 0 15.6-1.7 22.5-4.7 15.1 9 29.7 17.8 44.1 26.9 11.6 7.3 19.8 6.2 30.9-.2 53.8-31 108.1-61.2 162.3-91.6 11.1-6.2 22.1-12.5 37.2-20.9.4 15.2-.3 25.6 1.1 35.8 3.8 27.8-6.9 44.6-32.8 57.2-39.4 19.1-76.7 42.3-118.5 65.9 13 8.1 23.2 13.2 31.8 20.2 17.2 14 32.2 12 50.5.4 32.4-20.5 66.1-39.2 100.4-56.5 18.9-9.6 28.2-20.7 26.5-43.2-2-28.4.2-57.1.4-85.7.2-30.1.3-59.9.6-93.9zm-357 165.3c-13.2 0-24.5-8.3-29-20-1.3-3.4-2-7.1-2-11 0-17.1 13.9-31 31-31 13.7 0 25.4 9 29.5 21.3 1 3 1.5 6.3 1.5 9.7 0 17.1-14 31-31 31z"></path><path d="M865.9 397.8c-1.9-38.3-1.7-76.8-.1-115.2.9-21.2-4.2-34.7-24.7-44.3-25.8-12.1-49.7-28.1-74.5-42.4-25.8-14.9-51.8-29.6-81.3-46.5v31.3c0 79.3-1.8 158.6.9 237.8 1 28-4 48-24.7 61.1-8.2-4.7-17.8-7.5-27.9-7.5-30.9 0-56 25.1-56 56s25.1 56 56 56 56-25.1 56-55.9c12.9-7.4 25.6-14.6 38.5-21.4 12.1-6.5 15.1-14.2 14.9-27-.6-62.1-.3-124.2-.3-186.3v-42.7c13.4 7.1 22.2 12.8 31.7 16.5 26.1 10.3 35.5 27.9 33.7 56.6-2.7 43.7-.7 87.6-.7 135.6 13.4-7.3 22.8-13.8 33.2-17.8 20.8-8.2 26.4-22.3 25.3-43.9zM659.1 545.9c-5.1 7.2-13.1 12.1-22.3 13-1 .1-2 .1-3 .1-3.9 0-7.6-.7-11-2-11.7-4.4-20-15.8-20-29 0-16.6 13.1-30.2 29.5-31h1.5c17.1 0 31 13.9 31 31 0 6.7-2.1 12.9-5.7 17.9z"></path><path d="M627.3 356.9c.9-14.9 1.9-29.5 3.1-44 1.2-13.6-3.6-20.4-14.4-27.3-52.3-33.5-104.1-67.8-156.1-101.8-10.6-7-21.3-13.9-35.7-23.4 13.3-7.4 22.9-11.6 31.2-17.5 23-16.2 42.8-14.4 65.9 2.8 35.1 26.2 72.9 48.6 113 74.9 1.2-15.3 1-26.6 3.3-37.5 4.5-21.7-4.2-34.1-22.9-45-33.1-19.4-65.2-40.7-96.4-63-17.2-12.4-31.3-15.5-50.6-3.6-24.3 14.9-50.8 26.2-76.2 39.1-26.6 13.5-53.1 27.1-83.4 42.5 11.4 7.5 18.8 12.3 26.2 17.1 66.3 43.4 131.7 88.4 199.5 129.5 24.1 14.7 38.2 29.9 37.6 54.7-17.9 9.3-30.2 28.1-30.2 49.7 0 30.9 25.1 56 56 56s56-25.1 56-56c-.2-19.8-10.5-37.2-25.9-47.2zm-3.3 62.4c-2.2 3.8-5.1 7.1-8.7 9.7-5.1 3.8-11.5 6-18.3 6-17.1 0-31-13.9-31-31 0-5.6 1.5-10.8 4-15.3 5.3-9.4 15.4-15.7 27-15.7 12.7 0 23.6 7.6 28.4 18.6 1.7 3.8 2.6 8 2.6 12.4 0 5.6-1.5 10.8-4 15.3z"></path></g><g id="SvgjsG6635" class="text" transform="translate(230.71, 189.45478939121875) scale(1)" light-content="false" fill="#000000"><path d="M-230.71 0L-219.84 0L-219.84 -0.88L-223.79 -2.19L-223.79 -12.76L-221.24 -12.76C-218.88 -12.76 -216.76 -13.13 -214.91 -13.86C-213.05 -14.59 -211.6 -15.57 -210.54 -16.82C-209.49 -18.06 -208.97 -19.48 -208.97 -21.09C-208.97 -23.81 -210.01 -25.8 -212.1 -27.06C-214.19 -28.31 -216.96 -28.94 -220.41 -28.94L-230.71 -28.94L-230.71 -28.06L-227.21 -26.75L-227.21 -2.19L-230.71 -0.88ZM-223.79 -26.88L-220.54 -26.88C-218.06 -26.88 -216.12 -26.4 -214.73 -25.43C-213.34 -24.47 -212.65 -22.9 -212.65 -20.74C-212.65 -18.99 -213.34 -17.56 -214.71 -16.47C-216.08 -15.37 -217.93 -14.82 -220.23 -14.82L-223.79 -14.82Z M-185.24 0.44C-183.11 0.44 -181.2 0.04 -179.52 -0.75C-177.84 -1.53 -176.52 -2.76 -175.55 -4.43C-174.59 -6.1 -174.11 -8.26 -174.11 -10.92L-174.11 -26.79L-170.64 -28.06L-170.64 -28.94L-181.03 -28.94L-181.03 -28.06L-176.65 -26.84L-176.65 -10.17C-176.65 -8.19 -176.99 -6.58 -177.68 -5.35C-178.37 -4.12 -179.28 -3.22 -180.42 -2.65C-181.56 -2.08 -182.83 -1.8 -184.23 -1.8C-185.93 -1.8 -187.44 -2.1 -188.75 -2.72C-190.07 -3.33 -191.1 -4.35 -191.84 -5.77C-192.59 -7.18 -192.96 -9.11 -192.96 -11.53L-192.96 -26.75L-189.45 -28.06L-189.45 -28.94L-199.89 -28.94L-199.89 -28.06L-196.38 -26.75L-196.38 -10.92C-196.38 -8.26 -195.9 -6.1 -194.93 -4.43C-193.97 -2.76 -192.65 -1.53 -190.97 -0.75C-189.28 0.04 -187.38 0.44 -185.24 0.44Z M-160.56 0L-150.34 0L-150.34 -0.88L-153.63 -2.24L-153.63 -13.46L-149.64 -13.46L-141.04 0L-135.25 0L-135.25 -0.88L-138.15 -2.02L-146.52 -14.51C-144.71 -15.13 -143.24 -16.07 -142.12 -17.34C-140.99 -18.61 -140.43 -20.1 -140.43 -21.79C-140.43 -24.01 -141.31 -25.76 -143.08 -27.03C-144.85 -28.3 -147.27 -28.94 -150.34 -28.94L-160.56 -28.94L-160.56 -28.06L-157.05 -26.75L-157.05 -2.19L-160.56 -0.88ZM-150.78 -26.88C-148.73 -26.88 -147.11 -26.38 -145.91 -25.37C-144.71 -24.36 -144.11 -22.98 -144.11 -21.22C-144.11 -19.59 -144.72 -18.23 -145.93 -17.15C-147.14 -16.06 -148.67 -15.52 -150.51 -15.52L-153.63 -15.52L-153.63 -26.88Z M-116.93 0.22L-115.65 0.22L-104.56 -27.1L-102.15 -28.06L-102.15 -28.94L-110.92 -28.94L-110.92 -28.06L-107.23 -26.92L-107.23 -26.79L-115.48 -5.44L-115.74 -5.44L-124.12 -26.7L-124.12 -26.88L-120.39 -28.06L-120.39 -28.94L-130.69 -28.94L-130.69 -28.06L-127.8 -26.88Z M-93.16 0L-82.81 0L-82.81 -0.88L-86.27 -2.19L-86.27 -26.75L-82.81 -28.06L-82.81 -28.94L-93.16 -28.94L-93.16 -28.06L-89.69 -26.75L-89.69 -2.19L-93.16 -0.88Z M-72.51 0L-50.58 0L-50.58 -7.81L-51.33 -7.81L-53.69 -2.06L-65.62 -2.06L-65.62 -13.9L-57.95 -13.9L-56.19 -10.35L-55.45 -10.35L-55.45 -19.6L-56.19 -19.6L-57.95 -15.96L-65.62 -15.96L-65.62 -26.88L-54.92 -26.88L-52.55 -21.57L-51.81 -21.57L-51.81 -28.94L-72.51 -28.94L-72.51 -28.06L-69.04 -26.75L-69.04 -2.19L-72.51 -0.88Z M-31.2 0.22L-29.93 0.22L-21.86 -22.06L-21.64 -22.06L-13.48 0.22L-12.21 0.22L-4.14 -26.84L-1.25 -28.06L-1.25 -28.94L-10.46 -28.94L-10.46 -28.06L-6.64 -26.75L-12.3 -6.53L-12.52 -6.53L-20.54 -29.16L-21.9 -29.16L-29.58 -6.53L-29.8 -6.53L-35.63 -26.88L-31.81 -28.06L-31.81 -28.94L-42.47 -28.94L-42.47 -28.06L-39.22 -26.88Z M21.99 0L33 0C35.22 0 37.19 -0.37 38.92 -1.1C40.64 -1.83 42.01 -2.83 43.02 -4.1C44.03 -5.37 44.53 -6.81 44.53 -8.42C44.53 -10.35 43.8 -11.93 42.34 -13.15C40.88 -14.38 38.83 -15.17 36.2 -15.52C38.07 -16.08 39.51 -16.99 40.52 -18.26C41.53 -19.54 42.03 -20.93 42.03 -22.45C42.03 -23.91 41.58 -25.12 40.67 -26.07C39.76 -27.02 38.54 -27.73 36.99 -28.22C35.44 -28.7 33.71 -28.94 31.81 -28.94L21.99 -28.94L21.99 -28.06L25.45 -26.75L25.45 -2.19L21.99 -0.88ZM31.33 -26.88C33.64 -26.88 35.39 -26.41 36.59 -25.48C37.79 -24.54 38.39 -23.15 38.39 -21.31C38.39 -19.62 37.78 -18.3 36.55 -17.36C35.32 -16.43 33.67 -15.96 31.59 -15.96L28.87 -15.96L28.87 -26.88ZM33 -13.9C35.48 -13.9 37.42 -13.43 38.81 -12.48C40.2 -11.53 40.89 -10.03 40.89 -7.98C40.89 -6.26 40.2 -4.83 38.83 -3.71C37.45 -2.58 35.61 -2.02 33.3 -2.02L28.87 -2.02L28.87 -13.9Z M54.04 0L64.92 0L64.92 -0.88L60.97 -2.19L60.97 -12.76L63.52 -12.76C65.88 -12.76 68 -13.13 69.85 -13.86C71.71 -14.59 73.16 -15.57 74.22 -16.82C75.27 -18.06 75.79 -19.48 75.79 -21.09C75.79 -23.81 74.75 -25.8 72.66 -27.06C70.57 -28.31 67.8 -28.94 64.35 -28.94L54.04 -28.94L54.04 -28.06L57.55 -26.75L57.55 -2.19L54.04 -0.88ZM60.97 -26.88L64.22 -26.88C66.7 -26.88 68.64 -26.4 70.03 -25.43C71.42 -24.47 72.11 -22.9 72.11 -20.74C72.11 -18.99 71.42 -17.56 70.05 -16.47C68.68 -15.37 66.83 -14.82 64.52 -14.82L60.97 -14.82Z M85.09 0L94.52 0L94.52 -0.88L90.97 -2.15L91.49 -24.78L102.15 0.22L103.68 0.22L114.56 -24.86L115.04 -2.15L111.79 -0.88L111.79 0L121.44 0L121.44 -0.88L118.37 -2.19L117.63 -26.7L121.31 -28.06L121.31 -28.94L114.03 -28.94L103.59 -4.91L93.29 -28.94L85.7 -28.94L85.7 -28.06L89.48 -26.66L88.55 -2.19L85.09 -0.88Z M146.66 0L168.05 0L168.05 -9.56L167.31 -9.56L164.68 -2.06L153.54 -2.06L153.54 -26.75L157.49 -28.06L157.49 -28.94L146.66 -28.94L146.66 -28.06L150.12 -26.75L150.12 -2.19L146.66 -0.88Z M178.1 0L199.49 0L199.49 -9.56L198.75 -9.56L196.12 -2.06L184.98 -2.06L184.98 -26.75L188.93 -28.06L188.93 -28.94L178.1 -28.94L178.1 -28.06L181.56 -26.75L181.56 -2.19L178.1 -0.88Z M209.54 0L220.41 0L220.41 -0.88L216.46 -2.19L216.46 -12.76L219.01 -12.76C221.37 -12.76 223.49 -13.13 225.34 -13.86C227.2 -14.59 228.65 -15.57 229.71 -16.82C230.76 -18.06 231.29 -19.48 231.29 -21.09C231.29 -23.81 230.24 -25.8 228.15 -27.06C226.06 -28.31 223.29 -28.94 219.84 -28.94L209.54 -28.94L209.54 -28.06L213.04 -26.75L213.04 -2.19L209.54 -0.88ZM216.46 -26.88L219.71 -26.88C222.19 -26.88 224.13 -26.4 225.52 -25.43C226.91 -24.47 227.6 -22.9 227.6 -20.74C227.6 -18.99 226.91 -17.56 225.54 -16.47C224.17 -15.37 222.33 -14.82 220.02 -14.82L216.46 -14.82Z"></path></g><g id="SvgjsG6636" class="text" transform="translate(230.6949920654297, 230.60648194679038) scale(1)" light-content="false" fill="#000000"><path d="M-153.11 -5.56C-153.11 -6.24 -153.19 -6.85 -153.36 -7.38C-153.53 -7.92 -153.75 -8.39 -154.04 -8.81C-154.32 -9.22 -154.65 -9.57 -155.02 -9.87C-155.39 -10.16 -155.78 -10.41 -156.19 -10.6C-156.59 -10.79 -157.01 -10.94 -157.42 -11.03C-157.83 -11.12 -158.22 -11.17 -158.59 -11.18L-158.62 -11.18L-166.5 -11.18C-167.15 -11.18 -167.66 -11.37 -168.02 -11.75C-168.39 -12.14 -168.57 -12.66 -168.57 -13.32C-168.57 -13.97 -168.39 -14.49 -168.02 -14.88C-167.66 -15.28 -167.15 -15.48 -166.5 -15.48L-154.83 -15.48L-154.83 -18.91L-166.5 -18.91C-167.06 -18.91 -167.65 -18.81 -168.3 -18.61C-168.94 -18.41 -169.53 -18.09 -170.08 -17.65C-170.63 -17.2 -171.09 -16.63 -171.45 -15.92C-171.82 -15.21 -172 -14.34 -172 -13.32C-172 -12.29 -171.82 -11.42 -171.45 -10.71C-171.09 -9.99 -170.63 -9.42 -170.08 -8.98C-169.53 -8.54 -168.94 -8.22 -168.3 -8.02C-167.65 -7.82 -167.06 -7.73 -166.5 -7.73L-158.62 -7.73C-158.3 -7.73 -158.01 -7.67 -157.75 -7.57C-157.5 -7.46 -157.28 -7.31 -157.1 -7.12C-156.92 -6.93 -156.78 -6.7 -156.68 -6.43C-156.58 -6.17 -156.54 -5.88 -156.54 -5.56C-156.54 -4.91 -156.72 -4.39 -157.08 -4.01C-157.45 -3.62 -157.96 -3.43 -158.62 -3.43L-171.84 -3.43L-171.84 0L-158.62 0C-158.25 0 -157.86 -0.04 -157.44 -0.13C-157.02 -0.22 -156.61 -0.36 -156.21 -0.54C-155.8 -0.73 -155.41 -0.96 -155.03 -1.25C-154.65 -1.54 -154.32 -1.89 -154.04 -2.31C-153.76 -2.72 -153.54 -3.2 -153.36 -3.74C-153.19 -4.28 -153.11 -4.89 -153.11 -5.56Z M-135.93 -4.72L-135.93 -9.53C-135.93 -10.39 -136.09 -11.12 -136.4 -11.73C-136.72 -12.33 -137.11 -12.82 -137.58 -13.19C-138.05 -13.56 -138.56 -13.83 -139.11 -14C-139.66 -14.17 -140.17 -14.25 -140.65 -14.25L-148.18 -14.25L-148.18 -11L-140.65 -11C-140.23 -11 -139.88 -10.86 -139.6 -10.6C-139.32 -10.34 -139.19 -9.98 -139.19 -9.53L-139.19 -4.75C-139.19 -4.32 -139.31 -3.97 -139.57 -3.69C-139.82 -3.41 -140.18 -3.27 -140.65 -3.27L-146.81 -3.27C-147.21 -3.27 -147.56 -3.39 -147.85 -3.65C-148.15 -3.9 -148.3 -4.25 -148.3 -4.69C-148.3 -5.12 -148.17 -5.47 -147.91 -5.75C-147.66 -6.04 -147.3 -6.18 -146.83 -6.18L-140.65 -6.18L-140.65 -9.45L-146.83 -9.45C-147.69 -9.45 -148.43 -9.29 -149.03 -8.98C-149.63 -8.66 -150.12 -8.27 -150.49 -7.8C-150.86 -7.33 -151.13 -6.82 -151.3 -6.26C-151.47 -5.71 -151.55 -5.19 -151.55 -4.72C-151.55 -3.86 -151.39 -3.13 -151.08 -2.52C-150.76 -1.92 -150.37 -1.43 -149.9 -1.06C-149.43 -0.69 -148.92 -0.42 -148.37 -0.25C-147.82 -0.08 -147.31 0 -146.83 0L-140.65 0C-139.79 0 -139.06 -0.16 -138.45 -0.47C-137.85 -0.79 -137.36 -1.18 -136.99 -1.65C-136.62 -2.12 -136.35 -2.63 -136.18 -3.18C-136.01 -3.73 -135.93 -4.25 -135.93 -4.72Z M-126.74 0L-126.74 -3.43L-128.27 -3.43C-128.67 -3.43 -128.99 -3.55 -129.26 -3.8C-129.52 -4.05 -129.65 -4.39 -129.65 -4.81L-129.65 -20.28L-133.08 -20.28L-133.08 -4.81C-133.08 -3.92 -132.92 -3.18 -132.61 -2.56C-132.29 -1.95 -131.89 -1.46 -131.41 -1.07C-130.92 -0.69 -130.4 -0.42 -129.85 -0.25C-129.29 -0.08 -128.76 0 -128.27 0Z M-109.21 -9.53C-109.21 -10.39 -109.36 -11.12 -109.68 -11.73C-110 -12.33 -110.39 -12.82 -110.86 -13.19C-111.33 -13.56 -111.84 -13.83 -112.39 -14C-112.94 -14.17 -113.45 -14.25 -113.93 -14.25L-120.11 -14.25C-120.97 -14.25 -121.7 -14.09 -122.3 -13.78C-122.91 -13.46 -123.39 -13.07 -123.77 -12.6C-124.14 -12.13 -124.41 -11.62 -124.58 -11.07C-124.75 -10.52 -124.83 -10.01 -124.83 -9.53L-124.83 -4.72C-124.83 -3.86 -124.67 -3.13 -124.35 -2.52C-124.04 -1.92 -123.64 -1.43 -123.17 -1.06C-122.7 -0.69 -122.19 -0.42 -121.65 -0.25C-121.1 -0.08 -120.58 0 -120.11 0L-113.93 0L-113.93 -3.27L-120.08 -3.27C-120.5 -3.27 -120.86 -3.4 -121.14 -3.65C-121.43 -3.91 -121.57 -4.26 -121.57 -4.72L-121.57 -9.51C-121.57 -9.93 -121.45 -10.28 -121.19 -10.57C-120.94 -10.85 -120.57 -11 -120.11 -11L-113.93 -11C-113.52 -11 -113.18 -10.87 -112.89 -10.61C-112.61 -10.36 -112.46 -10.01 -112.46 -9.56C-112.46 -9.14 -112.59 -8.78 -112.84 -8.5C-113.1 -8.21 -113.46 -8.07 -113.93 -8.07L-120.11 -8.07L-120.11 -4.81L-113.93 -4.81C-113.06 -4.81 -112.33 -4.97 -111.73 -5.29C-111.13 -5.6 -110.64 -6 -110.27 -6.47C-109.89 -6.94 -109.62 -7.45 -109.46 -8C-109.29 -8.55 -109.21 -9.06 -109.21 -9.53Z M-93.12 -4.81C-93.12 -5.3 -93.21 -5.82 -93.38 -6.38C-93.55 -6.94 -93.83 -7.46 -94.2 -7.94C-94.58 -8.42 -95.08 -8.82 -95.69 -9.14C-96.31 -9.45 -97.06 -9.61 -97.93 -9.61L-103.25 -9.61C-103.33 -9.61 -103.41 -9.61 -103.49 -9.62C-103.57 -9.62 -103.65 -9.64 -103.72 -9.68C-103.78 -9.71 -103.84 -9.77 -103.88 -9.85C-103.92 -9.93 -103.95 -10.04 -103.96 -10.18C-103.96 -10.25 -103.95 -10.32 -103.95 -10.4C-103.94 -10.47 -103.91 -10.54 -103.86 -10.61C-103.81 -10.67 -103.74 -10.72 -103.64 -10.76C-103.54 -10.8 -103.4 -10.82 -103.22 -10.82L-94.82 -10.82L-94.82 -14.25L-103.25 -14.25C-103.67 -14.25 -104.12 -14.18 -104.61 -14.03C-105.09 -13.89 -105.54 -13.65 -105.95 -13.33C-106.36 -13 -106.71 -12.58 -106.98 -12.06C-107.25 -11.53 -107.39 -10.89 -107.39 -10.12C-107.39 -9.73 -107.31 -9.3 -107.17 -8.85C-107.02 -8.39 -106.79 -7.96 -106.46 -7.57C-106.13 -7.17 -105.7 -6.84 -105.17 -6.58C-104.64 -6.31 -104 -6.18 -103.25 -6.18L-97.93 -6.18C-97.06 -6.18 -96.59 -5.73 -96.55 -4.81C-96.55 -4.36 -96.67 -4.02 -96.91 -3.78C-97.14 -3.55 -97.49 -3.43 -97.96 -3.43L-107.22 -3.43L-107.22 0L-97.93 0C-97.61 0 -97.26 -0.04 -96.9 -0.11C-96.53 -0.19 -96.17 -0.3 -95.82 -0.46C-95.46 -0.62 -95.12 -0.82 -94.8 -1.07C-94.47 -1.32 -94.19 -1.63 -93.94 -1.98C-93.69 -2.34 -93.5 -2.75 -93.35 -3.22C-93.2 -3.69 -93.12 -4.22 -93.12 -4.81Z M-66.02 -7.73L-66.02 -11.18L-76.84 -11.18L-76.84 -7.73ZM-64.47 0L-64.47 -3.43L-76.81 -3.43C-77.27 -3.43 -77.62 -3.55 -77.86 -3.78C-78.09 -4.02 -78.21 -4.36 -78.21 -4.81L-78.21 -15.48L-64.47 -15.48L-64.47 -18.91L-79.91 -18.91C-80.16 -18.91 -80.39 -18.86 -80.6 -18.77C-80.81 -18.69 -80.99 -18.56 -81.15 -18.4C-81.3 -18.25 -81.42 -18.06 -81.51 -17.85C-81.6 -17.64 -81.64 -17.42 -81.64 -17.18L-81.64 -4.81C-81.64 -3.92 -81.48 -3.18 -81.16 -2.56C-80.84 -1.95 -80.44 -1.46 -79.96 -1.07C-79.48 -0.69 -78.96 -0.42 -78.4 -0.25C-77.83 -0.08 -77.32 0 -76.84 0Z M-48.92 0L-48.92 -9.45C-48.92 -9.94 -48.97 -10.4 -49.09 -10.82L-46 -10.82C-45.54 -10.82 -45.19 -10.71 -44.97 -10.47C-44.75 -10.24 -44.63 -9.9 -44.63 -9.45L-44.63 0L-41.21 0L-41.21 -9.45C-41.21 -10.04 -41.28 -10.57 -41.43 -11.03C-41.58 -11.5 -41.78 -11.91 -42.02 -12.27C-42.27 -12.62 -42.55 -12.93 -42.88 -13.18C-43.2 -13.43 -43.55 -13.63 -43.9 -13.79C-44.26 -13.95 -44.62 -14.06 -44.98 -14.14C-45.34 -14.21 -45.68 -14.25 -46 -14.25L-50.64 -14.25L-50.64 -13.2C-51.14 -13.57 -51.66 -13.83 -52.2 -14C-52.75 -14.17 -53.26 -14.25 -53.73 -14.25L-59.91 -14.25C-60.15 -14.25 -60.37 -14.21 -60.59 -14.12C-60.8 -14.03 -60.98 -13.91 -61.14 -13.76C-61.3 -13.6 -61.42 -13.42 -61.51 -13.22C-61.6 -13.01 -61.64 -12.79 -61.64 -12.55L-61.64 0L-58.21 0L-58.21 -10.82L-53.76 -10.82C-53.29 -10.82 -52.94 -10.71 -52.7 -10.47C-52.46 -10.24 -52.35 -9.9 -52.35 -9.45L-52.35 0Z M-22.34 -4.81L-22.34 -9.45C-22.34 -10.04 -22.41 -10.57 -22.56 -11.03C-22.71 -11.5 -22.91 -11.91 -23.16 -12.27C-23.4 -12.62 -23.69 -12.93 -24.01 -13.18C-24.34 -13.43 -24.68 -13.63 -25.04 -13.79C-25.39 -13.95 -25.75 -14.06 -26.11 -14.14C-26.47 -14.21 -26.81 -14.25 -27.14 -14.25L-33.32 -14.25L-33.32 -10.82L-27.14 -10.82C-26.73 -10.82 -26.4 -10.7 -26.15 -10.46C-25.89 -10.22 -25.77 -9.88 -25.77 -9.45L-25.77 -4.81C-25.77 -4.4 -25.89 -4.06 -26.13 -3.81C-26.37 -3.56 -26.71 -3.43 -27.14 -3.43L-33.32 -3.43C-33.72 -3.43 -34.05 -3.55 -34.31 -3.8C-34.57 -4.05 -34.71 -4.39 -34.71 -4.81L-34.71 -20.28L-38.13 -20.28L-38.13 -4.81C-38.13 -4.22 -38.06 -3.69 -37.91 -3.22C-37.76 -2.75 -37.56 -2.34 -37.31 -1.98C-37.06 -1.63 -36.77 -1.32 -36.45 -1.07C-36.12 -0.82 -35.78 -0.62 -35.42 -0.46C-35.07 -0.3 -34.71 -0.19 -34.35 -0.11C-33.99 -0.04 -33.65 0 -33.32 0L-27.14 0C-26.55 0 -26.02 -0.07 -25.56 -0.22C-25.09 -0.37 -24.68 -0.57 -24.32 -0.82C-23.97 -1.07 -23.66 -1.36 -23.41 -1.69C-23.16 -2.01 -22.96 -2.35 -22.8 -2.71C-22.64 -3.07 -22.53 -3.42 -22.45 -3.78C-22.38 -4.14 -22.34 -4.49 -22.34 -4.81Z M-6.94 -10.82L-6.94 -14.25L-14.68 -14.25C-15 -14.25 -15.34 -14.21 -15.7 -14.14C-16.07 -14.06 -16.43 -13.95 -16.78 -13.79C-17.14 -13.63 -17.48 -13.43 -17.8 -13.18C-18.13 -12.93 -18.42 -12.62 -18.67 -12.27C-18.92 -11.91 -19.12 -11.5 -19.27 -11.03C-19.42 -10.57 -19.49 -10.04 -19.49 -9.45L-19.49 0L-16.06 0L-16.06 -9.45C-16.06 -9.9 -15.95 -10.24 -15.71 -10.47C-15.47 -10.71 -15.12 -10.82 -14.65 -10.82Z M8.92 -4.72L8.92 -9.53C8.92 -10.39 8.76 -11.12 8.44 -11.73C8.13 -12.33 7.73 -12.82 7.26 -13.19C6.79 -13.56 6.28 -13.83 5.73 -14C5.19 -14.17 4.67 -14.25 4.2 -14.25L-3.33 -14.25L-3.33 -11L4.2 -11C4.62 -11 4.97 -10.86 5.25 -10.6C5.52 -10.34 5.66 -9.98 5.66 -9.53L5.66 -4.75C5.66 -4.32 5.53 -3.97 5.28 -3.69C5.03 -3.41 4.66 -3.27 4.2 -3.27L-1.96 -3.27C-2.36 -3.27 -2.71 -3.39 -3.01 -3.65C-3.3 -3.9 -3.45 -4.25 -3.45 -4.69C-3.45 -5.12 -3.32 -5.47 -3.07 -5.75C-2.81 -6.04 -2.45 -6.18 -1.98 -6.18L4.2 -6.18L4.2 -9.45L-1.98 -9.45C-2.85 -9.45 -3.58 -9.29 -4.18 -8.98C-4.78 -8.66 -5.27 -8.27 -5.64 -7.8C-6.02 -7.33 -6.29 -6.82 -6.45 -6.26C-6.62 -5.71 -6.7 -5.19 -6.7 -4.72C-6.7 -3.86 -6.55 -3.13 -6.23 -2.52C-5.91 -1.92 -5.52 -1.43 -5.05 -1.06C-4.58 -0.69 -4.07 -0.42 -3.52 -0.25C-2.97 -0.08 -2.46 0 -1.98 0L4.2 0C5.06 0 5.79 -0.16 6.39 -0.47C7 -0.79 7.48 -1.18 7.86 -1.65C8.23 -2.12 8.5 -2.63 8.67 -3.18C8.84 -3.73 8.92 -4.25 8.92 -4.72Z M25.65 0L25.65 -3.43L16.38 -3.43C15.92 -3.43 15.58 -3.55 15.34 -3.78C15.1 -4.02 14.98 -4.36 14.98 -4.81L14.98 -9.43C14.98 -9.9 15.1 -10.25 15.33 -10.48C15.57 -10.71 15.91 -10.82 16.35 -10.82L25.65 -10.82L25.65 -14.25L16.35 -14.25C15.77 -14.25 15.24 -14.18 14.77 -14.03C14.31 -13.88 13.9 -13.68 13.54 -13.43C13.18 -13.19 12.88 -12.9 12.63 -12.58C12.38 -12.25 12.18 -11.91 12.02 -11.56C11.86 -11.2 11.74 -10.84 11.67 -10.48C11.59 -10.12 11.56 -9.78 11.56 -9.45L11.56 -4.81C11.56 -3.92 11.72 -3.18 12.04 -2.56C12.36 -1.95 12.76 -1.46 13.24 -1.07C13.72 -0.69 14.24 -0.42 14.8 -0.25C15.36 -0.08 15.88 0 16.35 0Z M43.71 -9.53C43.71 -10.39 43.55 -11.12 43.24 -11.73C42.92 -12.33 42.53 -12.82 42.06 -13.19C41.59 -13.56 41.08 -13.83 40.53 -14C39.98 -14.17 39.47 -14.25 38.99 -14.25L32.81 -14.25C31.95 -14.25 31.21 -14.09 30.61 -13.78C30.01 -13.46 29.52 -13.07 29.15 -12.6C28.78 -12.13 28.51 -11.62 28.34 -11.07C28.17 -10.52 28.09 -10.01 28.09 -9.53L28.09 -4.72C28.09 -3.86 28.25 -3.13 28.56 -2.52C28.88 -1.92 29.27 -1.43 29.74 -1.06C30.21 -0.69 30.72 -0.42 31.27 -0.25C31.82 -0.08 32.33 0 32.81 0L38.99 0L38.99 -3.27L32.83 -3.27C32.41 -3.27 32.06 -3.4 31.77 -3.65C31.49 -3.91 31.34 -4.26 31.34 -4.72L31.34 -9.51C31.34 -9.93 31.47 -10.28 31.73 -10.57C31.98 -10.85 32.34 -11 32.81 -11L38.99 -11C39.39 -11 39.74 -10.87 40.03 -10.61C40.31 -10.36 40.45 -10.01 40.45 -9.56C40.45 -9.14 40.33 -8.78 40.07 -8.5C39.82 -8.21 39.46 -8.07 38.99 -8.07L32.81 -8.07L32.81 -4.81L38.99 -4.81C39.85 -4.81 40.58 -4.97 41.19 -5.29C41.79 -5.6 42.28 -6 42.65 -6.47C43.02 -6.94 43.29 -7.45 43.46 -8C43.63 -8.55 43.71 -9.06 43.71 -9.53Z M74.02 -11L74.02 -12.55C74.02 -12.97 73.97 -13.42 73.87 -13.9C73.78 -14.38 73.62 -14.86 73.41 -15.33C73.19 -15.8 72.92 -16.25 72.59 -16.68C72.26 -17.11 71.86 -17.49 71.39 -17.82C70.92 -18.15 70.38 -18.41 69.76 -18.61C69.15 -18.81 68.45 -18.91 67.68 -18.91L59.93 -18.91C59.45 -18.91 58.93 -18.82 58.37 -18.65C57.81 -18.48 57.29 -18.2 56.81 -17.82C56.33 -17.45 55.93 -16.95 55.61 -16.33C55.29 -15.72 55.13 -14.97 55.13 -14.09L55.13 0L58.55 0L58.55 -14.09C58.55 -14.54 58.67 -14.88 58.91 -15.12C59.15 -15.36 59.5 -15.48 59.95 -15.48L67.68 -15.48C68.13 -15.48 68.52 -15.41 68.86 -15.26C69.21 -15.11 69.5 -14.92 69.74 -14.66C69.98 -14.41 70.17 -14.1 70.31 -13.74C70.46 -13.38 70.55 -12.98 70.59 -12.55L70.59 -11C70.59 -10.56 70.52 -10.16 70.38 -9.82C70.24 -9.47 70.04 -9.17 69.79 -8.93C69.53 -8.68 69.23 -8.48 68.87 -8.34C68.52 -8.19 68.12 -8.1 67.68 -8.07L59.93 -8.07L59.93 -4.64L67.68 -4.64C68.1 -4.64 68.55 -4.69 69.03 -4.79C69.51 -4.88 69.98 -5.04 70.45 -5.25C70.92 -5.46 71.37 -5.73 71.8 -6.06C72.24 -6.4 72.62 -6.8 72.94 -7.27C73.27 -7.74 73.54 -8.28 73.73 -8.9C73.92 -9.51 74.02 -10.21 74.02 -11Z M90.84 -4.72L90.84 -9.53C90.84 -10.39 90.68 -11.12 90.37 -11.73C90.05 -12.33 89.66 -12.82 89.19 -13.19C88.72 -13.56 88.21 -13.83 87.66 -14C87.11 -14.17 86.6 -14.25 86.12 -14.25L78.59 -14.25L78.59 -11L86.12 -11C86.54 -11 86.89 -10.86 87.17 -10.6C87.45 -10.34 87.59 -9.98 87.59 -9.53L87.59 -4.75C87.59 -4.32 87.46 -3.97 87.2 -3.69C86.95 -3.41 86.59 -3.27 86.12 -3.27L79.97 -3.27C79.56 -3.27 79.21 -3.39 78.92 -3.65C78.62 -3.9 78.48 -4.25 78.48 -4.69C78.48 -5.12 78.6 -5.47 78.86 -5.75C79.11 -6.04 79.47 -6.18 79.94 -6.18L86.12 -6.18L86.12 -9.45L79.94 -9.45C79.08 -9.45 78.35 -9.29 77.74 -8.98C77.14 -8.66 76.65 -8.27 76.28 -7.8C75.91 -7.33 75.64 -6.82 75.47 -6.26C75.3 -5.71 75.22 -5.19 75.22 -4.72C75.22 -3.86 75.38 -3.13 75.69 -2.52C76.01 -1.92 76.4 -1.43 76.87 -1.06C77.34 -0.69 77.85 -0.42 78.4 -0.25C78.95 -0.08 79.46 0 79.94 0L86.12 0C86.98 0 87.71 -0.16 88.32 -0.47C88.92 -0.79 89.41 -1.18 89.78 -1.65C90.15 -2.12 90.42 -2.63 90.59 -3.18C90.76 -3.73 90.84 -4.25 90.84 -4.72Z M106.24 -10.82L106.24 -14.25L98.5 -14.25C98.18 -14.25 97.84 -14.21 97.48 -14.14C97.11 -14.06 96.75 -13.95 96.4 -13.79C96.04 -13.63 95.7 -13.43 95.38 -13.18C95.05 -12.93 94.76 -12.62 94.51 -12.27C94.26 -11.91 94.06 -11.5 93.91 -11.03C93.76 -10.57 93.69 -10.04 93.69 -9.45L93.69 0L97.12 0L97.12 -9.45C97.12 -9.9 97.24 -10.24 97.47 -10.47C97.71 -10.71 98.06 -10.82 98.53 -10.82Z M121.45 -10.82L121.45 -14.25L115.47 -14.25L115.47 -18.91L112 -18.91L112 -14.25L107.55 -14.25L107.55 -10.82L112 -10.82L112 0L115.47 0L115.47 -10.82Z M139.5 0L139.5 -7.91C139.5 -8.68 139.41 -9.38 139.21 -9.99C139.02 -10.61 138.76 -11.15 138.43 -11.62C138.1 -12.09 137.72 -12.49 137.29 -12.82C136.87 -13.15 136.42 -13.42 135.95 -13.64C135.48 -13.85 135 -14.01 134.53 -14.11C134.05 -14.2 133.59 -14.25 133.16 -14.25L125.44 -14.25C125.2 -14.25 124.97 -14.21 124.76 -14.12C124.55 -14.03 124.37 -13.91 124.21 -13.76C124.05 -13.6 123.93 -13.42 123.84 -13.22C123.75 -13.01 123.71 -12.79 123.71 -12.55L123.71 0L127.14 0L127.14 -10.82L133.13 -10.82C133.55 -10.82 133.93 -10.76 134.29 -10.62C134.64 -10.48 134.95 -10.29 135.22 -10.03C135.48 -9.78 135.69 -9.47 135.84 -9.12C136 -8.76 136.07 -8.36 136.07 -7.91L136.07 0Z M157.84 -9.53C157.84 -10.39 157.68 -11.12 157.37 -11.73C157.05 -12.33 156.66 -12.82 156.19 -13.19C155.72 -13.56 155.21 -13.83 154.66 -14C154.11 -14.17 153.6 -14.25 153.12 -14.25L146.94 -14.25C146.08 -14.25 145.34 -14.09 144.74 -13.78C144.14 -13.46 143.65 -13.07 143.28 -12.6C142.91 -12.13 142.64 -11.62 142.47 -11.07C142.3 -10.52 142.22 -10.01 142.22 -9.53L142.22 -4.72C142.22 -3.86 142.38 -3.13 142.69 -2.52C143.01 -1.92 143.4 -1.43 143.87 -1.06C144.34 -0.69 144.85 -0.42 145.4 -0.25C145.95 -0.08 146.46 0 146.94 0L153.12 0L153.12 -3.27L146.96 -3.27C146.54 -3.27 146.19 -3.4 145.9 -3.65C145.62 -3.91 145.47 -4.26 145.47 -4.72L145.47 -9.51C145.47 -9.93 145.6 -10.28 145.86 -10.57C146.11 -10.85 146.47 -11 146.94 -11L153.12 -11C153.53 -11 153.87 -10.87 154.16 -10.61C154.44 -10.36 154.58 -10.01 154.58 -9.56C154.58 -9.14 154.46 -8.78 154.2 -8.5C153.95 -8.21 153.59 -8.07 153.12 -8.07L146.94 -8.07L146.94 -4.81L153.12 -4.81C153.98 -4.81 154.71 -4.97 155.32 -5.29C155.92 -5.6 156.41 -6 156.78 -6.47C157.15 -6.94 157.42 -7.45 157.59 -8C157.76 -8.55 157.84 -9.06 157.84 -9.53Z M172.62 -10.82L172.62 -14.25L164.88 -14.25C164.56 -14.25 164.22 -14.21 163.86 -14.14C163.49 -14.06 163.13 -13.95 162.78 -13.79C162.42 -13.63 162.08 -13.43 161.76 -13.18C161.43 -12.93 161.14 -12.62 160.89 -12.27C160.64 -11.91 160.44 -11.5 160.29 -11.03C160.14 -10.57 160.07 -10.04 160.07 -9.45L160.07 0L163.5 0L163.5 -9.45C163.5 -9.9 163.61 -10.24 163.85 -10.47C164.09 -10.71 164.44 -10.82 164.91 -10.82Z"></path></g><rect id="SvgjsRect6637" width="462" height="2" fill="#333333" transform="translate(0, 202.1248956934207) scale(1)" light-content="false"></rect></g></g></svg>